DataType=double
version=3
OpenSimVersion=4.5-2023-11-26-efcdfd3eb
endheader
time	EMG01_right_gast_med	EMG02_right_glut_max	EMG03_left_gast_med	EMG04_left_glut_max	EMG05_right_glut_med	EMG06_right_bic_fem	EMG07_right_rect_fem	EMG08_right_vast_lat	EMG09_right_vast_med	EMG10_right_tens_fasc_lat	EMG11_left_glut_med	EMG12_left_bic_fem	EMG13_left_rect_fem	EMG14_left_vast_lat	EMG15_left_vast_med	EMG16_left_tens_fasc_lat
0	0.00429368440632414	-0.007927346256310093	0.03361222345683842	-0.006678822905560211	0.0002609822058749081	0.0137164281681876	-0.000890419124461283	0.004063357222686797	0.0002758147121076027	-0.01451479301453236	0.0003147899543546966	0.002804997616694164	0.01047921114133028	-0.0001089209452215063	-0.004945242723617813	-0.00269661431455417
0.01	0.005532872075297871	-0.0007339421200341868	0.1147415199760038	-0.005451928987343321	0.004545965426527937	0.02733747602151185	0.003582024969561979	0.007771380320824858	0.002199612642160823	-0.01166561282696989	0.006425270694248589	0.01199142349469405	0.01577919609415078	0.001609450924249867	-0.003320446590864751	-0.0009645828462816747
0.02	0.006667095375546653	0.00671053169394807	0.1916037853777743	-0.004100259624196059	0.009065804009537123	0.04110928326909472	0.00825937960224717	0.01147172432826548	0.004288214246099661	-0.008444030107760686	0.01255053420733484	0.0206143890437045	0.02109738900636717	0.003339212230675655	-0.001648023306592233	0.000805844764624315
0.03	0.007703112480246741	0.01439168374474009	0.263778136939403	-0.002623128195098023	0.01379803589175209	0.05492200665625133	0.01312675641290039	0.01514277771013371	0.00653403231519613	-0.004835579239947152	0.0186282226337033	0.02862837752261653	0.02638296918784852	0.005067533395808318	6.622105298570099e-05	0.002606951582657368
0.04	0.008651134909914154	0.02229335749928203	0.3308858048223046	-0.001019651214358963	0.01871779595769229	0.06866478125062572	0.01816640590272326	0.01876257998026718	0.00892753049331947	-0.0008287054416550113	0.02459716740388542	0.03599348242005314	0.03158479880879141	0.006781759692897954	0.001816853636459339	0.004432620138519109
0.05	0.009525010949753405	0.03039755782015102	0.3925943926021779	0.0007112959256947798	0.02379799799038958	0.08222735108090118	0.02335768651966016	0.02230905227865678	0.0114572385223204	0.003584797430102204	0.03039842777098035	0.04267585784536174	0.03665220645706274	0.008469608587400876	0.003598915145606866	0.006278607505759325
0.06	0.01034237696048423	0.0386843535986337	0.4486216228918796	0.002571077778976195	0.02900953350143106	0.09550160024392834	0.02867706906022737	0.02576023377231018	0.01410979267677319	0.008409353884499196	0.03597625376009906	0.04864810567597514	0.04153575961119579	0.01011935068152855	0.005407981124290715	0.008142771744881946
0.07000000000000001	0.01112477209749347	0.04713176017383536	0.4987384990179916	0.004561248838472351	0.03432148598498884	0.1083829538019671	0.03409818160300125	0.02909452089117504	0.01687000312113719	0.013645187837646	0.04127895136162495	0.05388959336875229	0.04618801380313192	0.01171997093796816	0.007240180677612708	0.01002524146767342
0.08	0.0118977122982077	0.05571560873366806	0.5427718156413227	0.006683454129999587	0.03970135978957517	0.1207716312302361	0.03959190039001354	0.03229090655228973	0.01972094967971649	0.01928792833220432	0.04625963095439126	0.05838669658790811	0.05056422772690196	0.01326130773796584	0.009092171657270555	0.01192852151322839
0.09	0.01269071974390127	0.06440941242054377	0.5806059585183138	0.008939282474390806	0.04511532344474833	0.1325737471502151	0.04512649158769623	0.03532921684864238	0.02264410718048263	0.02532825151492333	0.0508768232745868	0.06213296113923257	0.05462303433998968	0.01473416775209227	0.01096107358446092	0.01385752928710176
0.1	0.01353730419909862	0.07318424017655643	0.6121839486496361	0.01133007704156132	0.05052846771849605	0.1437022625452739	0.05066780790559705	0.03819034326119131	0.02561950111253092	0.03175157080165893	0.0550949514537554	0.06512917913247347	0.05832705873654996	0.0161304148957012	0.01284436154100935	0.01581955836309281
0.11	0.01447489263128206	0.08200860954857331	0.6375077053414329	0.01385671009682719	0.05590507887430233	0.1540777947414382	0.05617954287927002	0.04085646909648342	0.02862589377702407	0.03853778698559505	0.05888465315763274	0.06738337500772447	0.06164347477383814	0.01744303219845764	0.01473972608697124	0.01782416820057648
0.12	0.01554470337611524	0.09084840912784163	0.6566375183038757	0.01651933059898594	0.06120892755904676	0.1636292981626737	0.06162354438544717	0.04331128924209368	0.03164100040781415	0.04566110954988829	0.06222295355134116	0.06891069844202241	0.06454449396810537	0.01866615655862913	0.01664490587937113	0.01988300090239832
0.13	0.01679156090900959	0.09966686060770689	0.6696907268775064	0.01931709459799362	0.06640357353198416	0.1722946309414407	0.06696018773947515	0.0455402222309896	0.03464173392082107	0.0530899598231823	0.06509329682047636	0.0697332229968482	0.06700778130857846	0.01979508800515286	0.01855750082785202	0.02200952778509527
0.14	0.01826364704429259	0.1084245299400919	0.6768396090587507	0.02224788934690149	0.07145268622353412	0.180021023768803	0.07214880756494207	0.04753061297369513	0.03760447602115757	0.06078696581522919	0.06748544981623381	0.06987965075566036	0.06901679288584914	0.02082627668774418	0.0204747743188637	0.0242187302812568
0.15	0.02001218417236405	0.117079396608513	0.6783084917941312	0.02530806265857282	0.07632038116538221	0.1867654662818858	0.07714818640917354	0.04927192347416601	0.04050537133963305	0.06870905737215607	0.06939529494061707	0.06938492389292611	0.07056102979115096	0.02175729176467636	0.02239345346771175	0.02652672131308666
0.16	0.02209104609727481	0.1255869893451641	0.6743701125139154	0.02849216918323823	0.08097157262632462	0.1924950234427002	0.08191709652410271	0.0507559075624367	0.04332064013266018	0.07680766870663329	0.07082453082615467	0.06828974542360251	0.07163620202571315	0.02258677650772718	0.02430953655725435	0.02895031466523739
0.17	0.0245562922354879	0.1339005956012835	0.6653412911267729	0.03179274496013705	0.08537234267965409	0.1971870904567644	0.08641488915804275	0.0519767644016759	0.04602690394473205	0.08502905366276652	0.07178029974225439	0.06664001481565139	0.07224429537734162	0.02331439352929959	0.02621811667276544	0.03150655106312919
0.18	0.02746562126729906	0.1419715505972573	0.6515780052631309	0.03520012089956857	0.08949032563702672	0.2008295900161837	0.09060212326529642	0.05293126461277211	0.04860151753252189	0.09331471736339456	0.07227476054431135	0.06448618949925584	0.07239353384001897	0.02394076341960552	0.02811323002824175	0.03421219082611885
0.19	0.03087774056311311	0.1497496094989918	0.63346998594001	0.03870228484100684	0.09329510416839377	0.203421110034519	0.09444122303905655	0.05361884247893253	0.05102289930710288	0.1016019659220622	0.07232462519855185	0.06188258856083742	0.07209823164275911	0.02446739962511815	0.02998773671861807	0.03708318437439413
0.2	0.03485164788762574	0.1571834029593758	0.611434955929363	0.04228480054619602	0.09675861014068413	0.2049709734175389	0.0978971511775531	0.05404164757859761	0.05327085167749036	0.1098245734400722	0.07195067543341321	0.05888665800000176	0.07137853402405599	0.02489664234696322	0.03183324073610313	0.04013413348544355
